<mxfile host="Electron" modified="2024-02-23T17:25:16.424Z" agent="Mozilla/5.0 (Macintosh; Intel Mac OS X 10_15_7) AppleWebKit/537.36 (KHTML, like Gecko) draw.io/23.1.5 Chrome/120.0.6099.109 Electron/28.1.0 Safari/537.36" etag="kWybEeLOphR6gWRVHC_B" version="23.1.5" type="device">
  <diagram id="C5RBs43oDa-KdzZeNtuy" name="Page-1">
    <mxGraphModel dx="1114" dy="800" grid="1" gridSize="10" guides="1" tooltips="1" connect="1" arrows="1" fold="1" page="1" pageScale="1" pageWidth="827" pageHeight="1169" math="0" shadow="0">
      <root>
        <mxCell id="WIyWlLk6GJQsqaUBKTNV-0" />
        <mxCell id="WIyWlLk6GJQsqaUBKTNV-1" parent="WIyWlLk6GJQsqaUBKTNV-0" />
        <mxCell id="WIyWlLk6GJQsqaUBKTNV-3" value="Attraction" style="rounded=1;whiteSpace=wrap;html=1;fontSize=12;glass=0;strokeWidth=1;shadow=0;" parent="WIyWlLk6GJQsqaUBKTNV-1" vertex="1">
          <mxGeometry x="164" y="482.5" width="120" height="40" as="geometry" />
        </mxCell>
        <mxCell id="WIyWlLk6GJQsqaUBKTNV-7" value="City" style="rounded=1;whiteSpace=wrap;html=1;fontSize=12;glass=0;strokeWidth=1;shadow=0;" parent="WIyWlLk6GJQsqaUBKTNV-1" vertex="1">
          <mxGeometry x="554" y="322.5" width="120" height="40" as="geometry" />
        </mxCell>
        <mxCell id="WIyWlLk6GJQsqaUBKTNV-11" value="Theatres" style="rounded=1;whiteSpace=wrap;html=1;fontSize=12;glass=0;strokeWidth=1;shadow=0;" parent="WIyWlLk6GJQsqaUBKTNV-1" vertex="1">
          <mxGeometry x="324" y="562.5" width="120" height="40" as="geometry" />
        </mxCell>
        <mxCell id="WIyWlLk6GJQsqaUBKTNV-12" value="County" style="rounded=1;whiteSpace=wrap;html=1;fontSize=12;glass=0;strokeWidth=1;shadow=0;" parent="WIyWlLk6GJQsqaUBKTNV-1" vertex="1">
          <mxGeometry x="554" y="162.5" width="120" height="40" as="geometry" />
        </mxCell>
        <mxCell id="UkKHZ_3OAu4cQ-xT9Vp4-1" value="Museums" style="rounded=1;whiteSpace=wrap;html=1;fontSize=12;glass=0;strokeWidth=1;shadow=0;" parent="WIyWlLk6GJQsqaUBKTNV-1" vertex="1">
          <mxGeometry x="164" y="562.5" width="120" height="40" as="geometry" />
        </mxCell>
        <mxCell id="UkKHZ_3OAu4cQ-xT9Vp4-3" value="Main Street" style="rounded=1;whiteSpace=wrap;html=1;fontSize=12;glass=0;strokeWidth=1;shadow=0;" parent="WIyWlLk6GJQsqaUBKTNV-1" vertex="1">
          <mxGeometry x="474" y="562.5" width="120" height="40" as="geometry" />
        </mxCell>
        <mxCell id="UkKHZ_3OAu4cQ-xT9Vp4-13" value="Parks" style="rounded=1;whiteSpace=wrap;html=1;fontSize=12;glass=0;strokeWidth=1;shadow=0;" parent="WIyWlLk6GJQsqaUBKTNV-1" vertex="1">
          <mxGeometry x="4" y="562.5" width="120" height="40" as="geometry" />
        </mxCell>
        <mxCell id="_0klL6d2VXlAsK30MnLX-0" value="" style="rounded=0;html=1;jettySize=auto;orthogonalLoop=1;fontSize=11;endArrow=block;endFill=0;endSize=8;strokeWidth=1;shadow=0;labelBackgroundColor=none;edgeStyle=orthogonalEdgeStyle;" edge="1" parent="WIyWlLk6GJQsqaUBKTNV-1">
          <mxGeometry x="0.3333" y="20" relative="1" as="geometry">
            <mxPoint as="offset" />
            <mxPoint x="223.5" y="522.5" as="sourcePoint" />
            <mxPoint x="223.5" y="562.5" as="targetPoint" />
          </mxGeometry>
        </mxCell>
        <mxCell id="_0klL6d2VXlAsK30MnLX-1" value="" style="rounded=0;html=1;jettySize=auto;orthogonalLoop=1;fontSize=11;endArrow=block;endFill=0;endSize=8;strokeWidth=1;shadow=0;labelBackgroundColor=none;edgeStyle=orthogonalEdgeStyle;exitX=0.5;exitY=1;exitDx=0;exitDy=0;" edge="1" parent="WIyWlLk6GJQsqaUBKTNV-1" source="WIyWlLk6GJQsqaUBKTNV-3">
          <mxGeometry x="0.3333" y="20" relative="1" as="geometry">
            <mxPoint as="offset" />
            <mxPoint x="383.5" y="522.5" as="sourcePoint" />
            <mxPoint x="383.5" y="562.5" as="targetPoint" />
          </mxGeometry>
        </mxCell>
        <mxCell id="_0klL6d2VXlAsK30MnLX-2" value="" style="rounded=0;html=1;jettySize=auto;orthogonalLoop=1;fontSize=11;endArrow=block;endFill=0;endSize=8;strokeWidth=1;shadow=0;labelBackgroundColor=none;edgeStyle=orthogonalEdgeStyle;exitX=0.5;exitY=1;exitDx=0;exitDy=0;" edge="1" parent="WIyWlLk6GJQsqaUBKTNV-1" source="WIyWlLk6GJQsqaUBKTNV-3">
          <mxGeometry x="0.3333" y="20" relative="1" as="geometry">
            <mxPoint as="offset" />
            <mxPoint x="63.5" y="522.5" as="sourcePoint" />
            <mxPoint x="63.5" y="562.5" as="targetPoint" />
          </mxGeometry>
        </mxCell>
        <mxCell id="_0klL6d2VXlAsK30MnLX-4" value="Length" style="rounded=1;whiteSpace=wrap;html=1;fontSize=12;glass=0;strokeWidth=1;shadow=0;" vertex="1" parent="WIyWlLk6GJQsqaUBKTNV-1">
          <mxGeometry x="634" y="562.5" width="120" height="40" as="geometry" />
        </mxCell>
        <mxCell id="_0klL6d2VXlAsK30MnLX-5" value="Street" style="rounded=1;whiteSpace=wrap;html=1;fontSize=12;glass=0;strokeWidth=1;shadow=0;" vertex="1" parent="WIyWlLk6GJQsqaUBKTNV-1">
          <mxGeometry x="554" y="482.5" width="120" height="40" as="geometry" />
        </mxCell>
        <mxCell id="_0klL6d2VXlAsK30MnLX-43" value="Located in" style="rhombus;whiteSpace=wrap;html=1;" vertex="1" parent="WIyWlLk6GJQsqaUBKTNV-1">
          <mxGeometry x="554" y="242.5" width="120" height="40" as="geometry" />
        </mxCell>
        <mxCell id="_0klL6d2VXlAsK30MnLX-47" value="" style="endArrow=none;html=1;rounded=0;exitX=0.5;exitY=0;exitDx=0;exitDy=0;entryX=0.5;entryY=1;entryDx=0;entryDy=0;" edge="1" parent="WIyWlLk6GJQsqaUBKTNV-1" source="_0klL6d2VXlAsK30MnLX-5" target="_0klL6d2VXlAsK30MnLX-61">
          <mxGeometry width="50" height="50" relative="1" as="geometry">
            <mxPoint x="144" y="265" as="sourcePoint" />
            <mxPoint x="524" y="402.5" as="targetPoint" />
          </mxGeometry>
        </mxCell>
        <mxCell id="_0klL6d2VXlAsK30MnLX-48" value="" style="endArrow=none;html=1;rounded=0;" edge="1" parent="WIyWlLk6GJQsqaUBKTNV-1">
          <mxGeometry width="50" height="50" relative="1" as="geometry">
            <mxPoint x="613.5" y="322.5" as="sourcePoint" />
            <mxPoint x="613.5" y="282.5" as="targetPoint" />
          </mxGeometry>
        </mxCell>
        <mxCell id="_0klL6d2VXlAsK30MnLX-49" value="" style="endArrow=none;html=1;rounded=0;" edge="1" parent="WIyWlLk6GJQsqaUBKTNV-1">
          <mxGeometry width="50" height="50" relative="1" as="geometry">
            <mxPoint x="613.5" y="242.5" as="sourcePoint" />
            <mxPoint x="613.5" y="202.5" as="targetPoint" />
          </mxGeometry>
        </mxCell>
        <mxCell id="_0klL6d2VXlAsK30MnLX-50" value="(p, e)" style="text;html=1;align=center;verticalAlign=middle;resizable=0;points=[];autosize=1;strokeColor=none;fillColor=none;" vertex="1" parent="WIyWlLk6GJQsqaUBKTNV-1">
          <mxGeometry x="39" y="512.5" width="50" height="30" as="geometry" />
        </mxCell>
        <mxCell id="_0klL6d2VXlAsK30MnLX-51" value="Located in" style="rhombus;whiteSpace=wrap;html=1;" vertex="1" parent="WIyWlLk6GJQsqaUBKTNV-1">
          <mxGeometry x="554" y="402.5" width="120" height="40" as="geometry" />
        </mxCell>
        <mxCell id="_0klL6d2VXlAsK30MnLX-52" value="" style="endArrow=none;html=1;rounded=0;" edge="1" parent="WIyWlLk6GJQsqaUBKTNV-1">
          <mxGeometry width="50" height="50" relative="1" as="geometry">
            <mxPoint x="613.5" y="482.5" as="sourcePoint" />
            <mxPoint x="613.5" y="442.5" as="targetPoint" />
          </mxGeometry>
        </mxCell>
        <mxCell id="_0klL6d2VXlAsK30MnLX-53" value="" style="endArrow=none;html=1;rounded=0;" edge="1" parent="WIyWlLk6GJQsqaUBKTNV-1">
          <mxGeometry width="50" height="50" relative="1" as="geometry">
            <mxPoint x="613.5" y="402.5" as="sourcePoint" />
            <mxPoint x="613.5" y="362.5" as="targetPoint" />
          </mxGeometry>
        </mxCell>
        <mxCell id="_0klL6d2VXlAsK30MnLX-54" value="" style="endArrow=none;html=1;rounded=0;exitX=0.5;exitY=0;exitDx=0;exitDy=0;" edge="1" parent="WIyWlLk6GJQsqaUBKTNV-1" source="UkKHZ_3OAu4cQ-xT9Vp4-3">
          <mxGeometry width="50" height="50" relative="1" as="geometry">
            <mxPoint x="613.5" y="562.5" as="sourcePoint" />
            <mxPoint x="613.5" y="522.5" as="targetPoint" />
          </mxGeometry>
        </mxCell>
        <mxCell id="_0klL6d2VXlAsK30MnLX-55" value="" style="endArrow=none;html=1;rounded=0;exitX=0.5;exitY=0;exitDx=0;exitDy=0;entryX=0.5;entryY=1;entryDx=0;entryDy=0;" edge="1" parent="WIyWlLk6GJQsqaUBKTNV-1" source="_0klL6d2VXlAsK30MnLX-4" target="_0klL6d2VXlAsK30MnLX-5">
          <mxGeometry width="50" height="50" relative="1" as="geometry">
            <mxPoint x="613.5" y="572.5" as="sourcePoint" />
            <mxPoint x="613.5" y="532.5" as="targetPoint" />
          </mxGeometry>
        </mxCell>
        <mxCell id="_0klL6d2VXlAsK30MnLX-56" value="intersects" style="rhombus;whiteSpace=wrap;html=1;" vertex="1" parent="WIyWlLk6GJQsqaUBKTNV-1">
          <mxGeometry x="704" y="482.5" width="120" height="40" as="geometry" />
        </mxCell>
        <mxCell id="_0klL6d2VXlAsK30MnLX-57" value="" style="curved=1;endArrow=classic;html=1;rounded=0;exitX=0.442;exitY=-0.025;exitDx=0;exitDy=0;exitPerimeter=0;entryX=1;entryY=0.5;entryDx=0;entryDy=0;" edge="1" parent="WIyWlLk6GJQsqaUBKTNV-1" source="_0klL6d2VXlAsK30MnLX-56" target="_0klL6d2VXlAsK30MnLX-5">
          <mxGeometry width="50" height="50" relative="1" as="geometry">
            <mxPoint x="754" y="447.5" as="sourcePoint" />
            <mxPoint x="804" y="397.5" as="targetPoint" />
            <Array as="points">
              <mxPoint x="764" y="462.5" />
              <mxPoint x="704" y="442.5" />
            </Array>
          </mxGeometry>
        </mxCell>
        <mxCell id="_0klL6d2VXlAsK30MnLX-58" value="" style="curved=1;endArrow=classic;html=1;rounded=0;exitX=1;exitY=0.5;exitDx=0;exitDy=0;entryX=0.5;entryY=1;entryDx=0;entryDy=0;" edge="1" parent="WIyWlLk6GJQsqaUBKTNV-1" source="_0klL6d2VXlAsK30MnLX-5" target="_0klL6d2VXlAsK30MnLX-56">
          <mxGeometry width="50" height="50" relative="1" as="geometry">
            <mxPoint x="654" y="712.5" as="sourcePoint" />
            <mxPoint x="704" y="662.5" as="targetPoint" />
            <Array as="points">
              <mxPoint x="704" y="542.5" />
              <mxPoint x="734" y="542.5" />
            </Array>
          </mxGeometry>
        </mxCell>
        <mxCell id="_0klL6d2VXlAsK30MnLX-61" value="Located in" style="rhombus;whiteSpace=wrap;html=1;" vertex="1" parent="WIyWlLk6GJQsqaUBKTNV-1">
          <mxGeometry x="384" y="392.5" width="120" height="40" as="geometry" />
        </mxCell>
        <mxCell id="_0klL6d2VXlAsK30MnLX-62" value="" style="endArrow=none;html=1;rounded=0;exitX=1;exitY=0.5;exitDx=0;exitDy=0;" edge="1" parent="WIyWlLk6GJQsqaUBKTNV-1" source="WIyWlLk6GJQsqaUBKTNV-3">
          <mxGeometry width="50" height="50" relative="1" as="geometry">
            <mxPoint x="404" y="482.5" as="sourcePoint" />
            <mxPoint x="444" y="432.5" as="targetPoint" />
          </mxGeometry>
        </mxCell>
        <mxCell id="_0klL6d2VXlAsK30MnLX-63" value="(1, 1)" style="text;html=1;align=center;verticalAlign=middle;resizable=0;points=[];autosize=1;strokeColor=none;fillColor=none;" vertex="1" parent="WIyWlLk6GJQsqaUBKTNV-1">
          <mxGeometry x="314" y="432.5" width="50" height="30" as="geometry" />
        </mxCell>
        <mxCell id="_0klL6d2VXlAsK30MnLX-65" value="(0, n)" style="text;html=1;align=center;verticalAlign=middle;resizable=0;points=[];autosize=1;strokeColor=none;fillColor=none;" vertex="1" parent="WIyWlLk6GJQsqaUBKTNV-1">
          <mxGeometry x="614" y="202.5" width="50" height="30" as="geometry" />
        </mxCell>
        <mxCell id="_0klL6d2VXlAsK30MnLX-66" value="(1, 1)" style="text;html=1;align=center;verticalAlign=middle;resizable=0;points=[];autosize=1;strokeColor=none;fillColor=none;" vertex="1" parent="WIyWlLk6GJQsqaUBKTNV-1">
          <mxGeometry x="624" y="282.5" width="50" height="30" as="geometry" />
        </mxCell>
        <mxCell id="_0klL6d2VXlAsK30MnLX-68" value="(0, n)" style="text;html=1;align=center;verticalAlign=middle;resizable=0;points=[];autosize=1;strokeColor=none;fillColor=none;" vertex="1" parent="WIyWlLk6GJQsqaUBKTNV-1">
          <mxGeometry x="514" y="432.5" width="50" height="30" as="geometry" />
        </mxCell>
      </root>
    </mxGraphModel>
  </diagram>
</mxfile>
